<?xml version="1.0" standalone="no"?>
<!DOCTYPE svg PUBLIC "-//W3C//DTD SVG 20010904//EN"
 "http://www.w3.org/TR/2001/REC-SVG-20010904/DTD/svg10.dtd">
<svg version="1.0" xmlns="http://www.w3.org/2000/svg"
 width="195.000000pt" height="195.000000pt" viewBox="0 0 195.000000 195.000000"
 preserveAspectRatio="xMidYMid meet">
<metadata>
Created by potrace 1.14, written by Peter Selinger 2001-2017
</metadata>
<g transform="translate(0.000000,195.000000) scale(0.100000,-0.100000)"
fill="#000000" stroke="none">
<path d="M83 1912 l-73 -3 0 -944 0 -945 970 0 970 0 0 945 0 945 -52 0 c-369
3 -1761 4 -1815 2z m1807 -947 l0 -885 -910 0 -910 0 0 885 0 885 910 0 910 0
0 -885z"/>
<path d="M250 1542 c-20 -11 -43 -34 -54 -56 -61 -122 104 -228 219 -140 37
28 50 67 41 118 -15 80 -123 121 -206 78z"/>
<path d="M1129 1189 c-148 -65 -61 -219 117 -204 132 11 198 106 123 176 -55
52 -159 64 -240 28z"/>
<path d="M1631 817 c-21 -10 -23 -15 -17 -64 6 -56 6 -57 -79 -149 -13 -14
-86 -57 -145 -86 -50 -25 -124 -31 -211 -17 -72 11 -119 17 -142 18 -10 1 -22
12 -27 26 -5 14 -14 25 -19 25 -5 0 -17 24 -26 53 -22 69 -53 97 -110 97 -52
0 -71 -16 -80 -69 -17 -103 117 -221 309 -271 98 -25 192 -19 358 24 139 35
196 64 278 135 19 17 38 31 41 31 13 0 29 54 29 100 0 119 -74 188 -159 147z"/>
</g>
</svg>
