<?xml version="1.0" standalone="no"?>
<!DOCTYPE svg PUBLIC "-//W3C//DTD SVG 20010904//EN"
 "http://www.w3.org/TR/2001/REC-SVG-20010904/DTD/svg10.dtd">
<svg version="1.0" xmlns="http://www.w3.org/2000/svg"
 width="191.000000pt" height="191.000000pt" viewBox="0 0 191.000000 191.000000"
 preserveAspectRatio="xMidYMid meet">
<metadata>
Created by potrace 1.14, written by Peter Selinger 2001-2017
</metadata>
<g transform="translate(0.000000,191.000000) scale(0.100000,-0.100000)"
fill="#000000" stroke="none">
<path d="M213 1530 c-121 -73 -67 -230 79 -230 86 0 155 67 144 139 -14 90
-140 142 -223 91z"/>
<path d="M1105 1181 c-54 -25 -79 -55 -79 -96 0 -67 71 -115 169 -115 69 0
113 18 148 59 33 39 34 69 5 106 -48 61 -163 83 -243 46z"/>
<path d="M1597 814 c-26 -14 -27 -17 -21 -69 6 -53 6 -55 -32 -96 -54 -57
-164 -128 -232 -149 -52 -16 -66 -16 -152 -5 -143 20 -170 26 -170 40 0 6 -9
20 -20 30 -11 10 -27 42 -35 70 -18 60 -51 85 -113 85 -44 0 -58 -12 -72 -60
-14 -50 -1 -87 52 -145 36 -39 71 -65 133 -95 151 -73 251 -78 461 -25 82 21
154 46 176 60 21 14 41 25 44 25 4 0 28 18 53 40 25 22 54 47 63 54 27 23 33
100 14 162 -26 83 -84 113 -149 78z"/>
</g>
</svg>
