<?xml version="1.0" standalone="no"?>
<!DOCTYPE svg PUBLIC "-//W3C//DTD SVG 20010904//EN"
 "http://www.w3.org/TR/2001/REC-SVG-20010904/DTD/svg10.dtd">
<svg version="1.0" xmlns="http://www.w3.org/2000/svg"
 width="181.000000pt" height="181.000000pt" viewBox="0 0 181.000000 181.000000"
 preserveAspectRatio="xMidYMid meet">
<metadata>
Created by potrace 1.14, written by Peter Selinger 2001-2017
</metadata>
<g transform="translate(0.000000,181.000000) scale(0.100000,-0.100000)"
fill="#000000" stroke="none">
<path d="M0 900 l0 -900 905 0 905 0 0 900 0 900 -905 0 -905 0 0 -900z m277
573 c44 -21 73 -66 73 -116 0 -28 -8 -46 -33 -73 -59 -64 -155 -64 -214 0 -98
106 38 254 174 189z m929 -352 c55 -25 84 -58 84 -96 0 -68 -74 -117 -175
-117 -101 0 -175 49 -175 117 0 60 84 115 175 115 28 0 68 -9 91 -19z m416
-382 c40 -29 58 -75 58 -150 0 -62 0 -62 -52 -111 -77 -71 -167 -122 -243
-138 -22 -4 -77 -18 -123 -29 -148 -38 -283 -27 -405 34 -89 45 -130 76 -169
129 -26 36 -29 47 -25 95 5 64 22 81 81 81 55 0 90 -31 111 -97 9 -29 21 -53
26 -53 5 0 14 -11 19 -24 10 -27 6 -26 180 -49 98 -13 109 -13 159 5 30 10 66
26 80 35 15 10 41 26 60 36 36 20 112 98 122 125 3 9 2 33 -1 54 -7 34 -4 41
18 58 32 26 67 25 104 -1z"/>
</g>
</svg>
